<?xml version="1.0" encoding="UTF-8"?>
<!DOCTYPE svg PUBLIC "-//W3C//DTD SVG 1.1//EN" "http://www.w3.org/Graphics/SVG/1.1/DTD/svg11.dtd">
<!-- Creator: CorelDRAW 2019 (64-Bit) -->
<svg xmlns="http://www.w3.org/2000/svg" xml:space="preserve" width="942px" height="871px" version="1.1" style="shape-rendering:geometricPrecision; text-rendering:geometricPrecision; image-rendering:optimizeQuality; fill-rule:evenodd; clip-rule:evenodd"
viewBox="0 0 785.1 726.04"
 xmlns:xlink="http://www.w3.org/1999/xlink">
 <defs>
  <style type="text/css">
   <![CDATA[
    .fil0 {fill:#52D4CA}
    .fil1 {fill:#54BBD7}
    .fil3 {fill:#56A5E4}
    .fil2 {fill:#598CF2}
    .fil4 {fill:#A8C7F3}
    .fil5 {fill:#ADEFE1}
   ]]>
  </style>
 </defs>
 <g id="Capa_x0020_1">
  <metadata id="CorelCorpID_0Corel-Layer"/>
  <polygon class="fil0" points="128.53,69.48 128.53,72.95 118.11,72.95 118.11,76.43 111.16,76.43 111.16,79.9 104.22,79.9 104.22,83.37 93.79,83.37 93.79,86.85 86.85,86.85 86.85,90.32 76.43,90.32 76.43,93.79 69.48,93.79 69.48,97.27 62.53,97.27 62.53,100.74 52.11,100.74 52.11,104.22 45.16,104.22 45.16,107.69 38.21,107.69 38.21,111.16 27.79,111.16 27.79,114.64 20.84,114.64 20.84,118.11 10.42,118.11 10.42,121.59 6.95,121.59 6.95,125.06 3.47,125.06 3.47,135.48 0,135.48 0,138.96 3.47,138.96 3.47,142.43 6.95,142.43 6.95,149.38 10.42,149.38 10.42,152.85 13.9,152.85 13.9,156.32 17.37,156.32 17.37,163.27 20.84,163.27 20.84,166.75 24.32,166.75 24.32,170.22 27.79,170.22 27.79,173.69 31.26,173.69 31.26,180.64 34.74,180.64 34.74,184.12 38.21,184.12 38.21,187.59 41.69,187.59 41.69,191.06 45.16,191.06 45.16,198.01 48.63,198.01 48.63,201.49 52.11,201.49 52.11,204.96 55.58,204.96 55.58,208.43 59.06,208.43 59.06,215.38 62.53,215.38 62.53,218.85 66,218.85 66,222.33 69.48,222.33 69.48,229.28 72.95,229.28 72.95,232.75 76.43,232.75 76.43,236.22 79.9,236.22 79.9,239.7 83.37,239.7 83.37,250.12 79.9,250.12 79.9,253.59 76.43,253.59 76.43,257.07 72.95,257.07 72.95,260.54 69.48,260.54 69.48,267.49 66,267.49 66,270.96 62.53,270.96 62.53,274.44 59.06,274.44 59.06,281.38 55.58,281.38 55.58,284.86 52.11,284.86 52.11,288.33 48.63,288.33 48.63,291.81 45.16,291.81 45.16,298.75 41.69,298.75 41.69,302.23 38.21,302.23 38.21,305.7 34.74,305.7 34.74,309.18 31.26,309.18 31.26,316.12 27.79,316.12 27.79,319.6 24.32,319.6 24.32,323.07 20.84,323.07 20.84,326.55 17.37,326.55 17.37,333.49 13.9,333.49 13.9,336.97 10.42,336.97 10.42,340.44 6.95,340.44 6.95,343.91 3.47,343.91 3.47,350.86 0,350.86 0,354.34 3.47,354.34 3.47,364.76 6.95,364.76 6.95,368.23 13.9,368.23 13.9,371.71 20.84,371.71 20.84,375.18 27.79,375.18 27.79,378.65 38.21,378.65 38.21,382.13 45.16,382.13 45.16,385.6 55.58,385.6 55.58,389.07 62.53,389.07 62.53,392.55 69.48,392.55 69.48,396.02 79.9,396.02 79.9,399.5 86.85,399.5 86.85,402.97 90.32,402.97 90.32,594.03 93.79,594.03 93.79,600.98 100.74,600.98 100.74,604.46 107.69,604.46 107.69,607.93 114.64,607.93 114.64,611.4 125.06,611.4 125.06,614.88 132.01,614.88 132.01,618.35 138.96,618.35 138.96,621.83 149.38,621.83 149.38,625.3 156.32,625.3 156.32,628.77 163.27,628.77 163.27,632.25 170.22,632.25 170.22,635.72 180.64,635.72 180.64,639.19 187.59,639.19 187.59,642.67 194.54,642.67 194.54,646.14 204.96,646.14 204.96,649.62 211.91,649.62 211.91,653.09 218.85,653.09 218.85,656.56 229.28,656.56 229.28,660.04 236.22,660.04 236.22,663.51 243.17,663.51 243.17,666.99 253.59,666.99 253.59,670.46 260.54,670.46 260.54,673.93 267.49,673.93 267.49,677.41 277.91,677.41 277.91,673.93 274.44,673.93 274.44,656.56 281.38,656.56 281.38,653.09 270.96,653.09 270.96,649.62 264.02,649.62 264.02,646.14 257.07,646.14 257.07,642.67 246.65,642.67 246.65,639.19 239.7,639.19 239.7,635.72 232.75,635.72 232.75,632.25 222.33,632.25 222.33,628.77 215.38,628.77 215.38,625.3 208.43,625.3 208.43,621.83 198.01,621.83 198.01,618.35 191.06,618.35 191.06,614.88 184.12,614.88 184.12,611.4 177.17,611.4 177.17,607.93 166.75,607.93 166.75,604.46 159.8,604.46 159.8,600.98 149.38,600.98 149.38,597.51 142.43,597.51 142.43,594.03 135.48,594.03 135.48,590.56 125.06,590.56 125.06,587.09 118.11,587.09 118.11,583.61 111.16,583.61 111.16,413.39 121.59,413.39 121.59,416.87 132.01,416.87 132.01,420.34 138.96,420.34 138.96,423.81 145.9,423.81 145.9,427.29 156.32,427.29 156.32,430.76 163.27,430.76 163.27,434.24 170.22,434.24 170.22,437.71 180.64,437.71 180.64,441.18 187.59,441.18 187.59,444.66 198.01,444.66 198.01,448.13 204.96,448.13 204.96,451.6 211.91,451.6 211.91,455.08 222.33,455.08 222.33,458.55 229.28,458.55 229.28,462.03 236.22,462.03 236.22,465.5 246.65,465.5 246.65,468.97 253.59,468.97 253.59,472.45 264.02,472.45 264.02,475.92 270.96,475.92 270.96,479.4 274.44,479.4 274.44,455.08 267.49,455.08 267.49,451.6 257.07,451.6 257.07,448.13 250.12,448.13 250.12,444.66 243.17,444.66 243.17,441.18 232.75,441.18 232.75,437.71 225.8,437.71 225.8,434.24 218.85,434.24 218.85,430.76 208.43,430.76 208.43,427.29 201.49,427.29 201.49,423.81 191.06,423.81 191.06,420.34 184.12,420.34 184.12,416.87 177.17,416.87 177.17,413.39 166.75,413.39 166.75,409.92 159.8,409.92 159.8,406.44 149.38,406.44 149.38,402.97 142.43,402.97 142.43,399.5 135.48,399.5 135.48,396.02 125.06,396.02 125.06,392.55 118.11,392.55 118.11,389.07 107.69,389.07 107.69,385.6 100.74,385.6 100.74,382.13 93.79,382.13 93.79,378.65 83.37,378.65 83.37,375.18 76.43,375.18 76.43,371.71 69.48,371.71 69.48,368.23 59.06,368.23 59.06,364.76 52.11,364.76 52.11,361.28 41.69,361.28 41.69,357.81 34.74,357.81 34.74,354.34 27.79,354.34 27.79,350.86 31.26,350.86 31.26,347.39 34.74,347.39 34.74,340.44 38.21,340.44 38.21,336.97 41.69,336.97 41.69,333.49 45.16,333.49 45.16,330.02 48.63,330.02 48.63,323.07 52.11,323.07 52.11,319.6 55.58,319.6 55.58,316.12 59.06,316.12 59.06,312.65 62.53,312.65 62.53,305.7 66,305.7 66,302.23 69.48,302.23 69.48,298.75 72.95,298.75 72.95,291.81 76.43,291.81 76.43,288.33 79.9,288.33 79.9,284.86 83.37,284.86 83.37,281.38 86.85,281.38 86.85,274.44 90.32,274.44 90.32,270.96 93.79,270.96 93.79,267.49 97.27,267.49 97.27,264.02 100.74,264.02 100.74,257.07 107.69,257.07 107.69,260.54 118.11,260.54 118.11,264.02 125.06,264.02 125.06,267.49 132.01,267.49 132.01,270.96 142.43,270.96 142.43,274.44 149.38,274.44 149.38,277.91 156.32,277.91 156.32,281.38 166.75,281.38 166.75,284.86 173.69,284.86 173.69,288.33 180.64,288.33 180.64,291.81 191.06,291.81 191.06,295.28 198.01,295.28 198.01,298.75 204.96,298.75 204.96,302.23 215.38,302.23 215.38,305.7 222.33,305.7 222.33,309.18 232.75,309.18 232.75,312.65 239.7,312.65 239.7,316.12 246.65,316.12 246.65,319.6 257.07,319.6 257.07,323.07 264.02,323.07 264.02,326.55 270.96,326.55 270.96,330.02 281.38,330.02 281.38,333.49 288.33,333.49 288.33,336.97 298.75,336.97 298.75,340.44 305.7,340.44 305.7,343.91 312.65,343.91 312.65,347.39 323.07,347.39 323.07,350.86 330.02,350.86 330.02,354.34 340.44,354.34 340.44,357.81 347.39,357.81 347.39,354.34 350.86,354.34 350.86,347.39 357.81,347.39 357.81,340.44 347.39,340.44 347.39,336.97 340.44,336.97 340.44,333.49 333.49,333.49 333.49,330.02 323.07,330.02 323.07,326.55 316.12,326.55 316.12,323.07 309.18,323.07 309.18,319.6 298.75,319.6 298.75,316.12 291.81,316.12 291.81,312.65 281.38,312.65 281.38,309.18 274.44,309.18 274.44,305.7 267.49,305.7 267.49,302.23 257.07,302.23 257.07,298.75 250.12,298.75 250.12,295.28 243.17,295.28 243.17,291.81 232.75,291.81 232.75,288.33 225.8,288.33 225.8,284.86 218.85,284.86 218.85,281.38 208.43,281.38 208.43,277.91 201.49,277.91 201.49,274.44 191.06,274.44 191.06,270.96 184.12,270.96 184.12,267.49 177.17,267.49 177.17,264.02 166.75,264.02 166.75,260.54 159.8,260.54 159.8,257.07 149.38,257.07 149.38,253.59 142.43,253.59 142.43,250.12 135.48,250.12 135.48,246.65 125.06,246.65 125.06,243.17 118.11,243.17 118.11,239.7 114.64,239.7 114.64,236.22 107.69,236.22 107.69,232.75 100.74,232.75 100.74,225.8 97.27,225.8 97.27,222.33 93.79,222.33 93.79,218.85 90.32,218.85 90.32,215.38 86.85,215.38 86.85,208.43 83.37,208.43 83.37,204.96 79.9,204.96 79.9,201.49 76.43,201.49 76.43,198.01 72.95,198.01 72.95,191.06 69.48,191.06 69.48,187.59 66,187.59 66,184.12 62.53,184.12 62.53,177.17 59.06,177.17 59.06,173.69 55.58,173.69 55.58,170.22 52.11,170.22 52.11,166.75 48.63,166.75 48.63,159.8 45.16,159.8 45.16,156.32 41.69,156.32 41.69,152.85 38.21,152.85 38.21,149.38 34.74,149.38 34.74,142.43 31.26,142.43 31.26,138.96 27.79,138.96 27.79,135.48 34.74,135.48 34.74,132.01 41.69,132.01 41.69,128.53 52.11,128.53 52.11,125.06 59.06,125.06 59.06,121.59 66,121.59 66,118.11 76.43,118.11 76.43,114.64 83.37,114.64 83.37,111.16 90.32,111.16 90.32,107.69 100.74,107.69 100.74,104.22 107.69,104.22 107.69,100.74 114.64,100.74 114.64,97.27 125.06,97.27 125.06,93.79 132.01,93.79 132.01,90.32 142.43,90.32 142.43,86.85 149.38,86.85 149.38,83.37 156.32,83.37 156.32,79.9 166.75,79.9 166.75,76.43 173.69,76.43 173.69,72.95 184.12,72.95 184.12,69.48 191.06,69.48 191.06,66 198.01,66 198.01,62.53 208.43,62.53 208.43,59.06 215.38,59.06 215.38,55.58 222.33,55.58 222.33,52.11 232.75,52.11 232.75,48.63 239.7,48.63 239.7,45.16 246.65,45.16 246.65,41.69 257.07,41.69 257.07,38.21 264.02,38.21 264.02,34.74 274.44,34.74 274.44,31.26 281.38,31.26 281.38,27.79 288.33,27.79 288.33,24.32 298.75,24.32 298.75,20.84 302.23,20.84 302.23,24.32 305.7,24.32 305.7,27.79 309.18,27.79 309.18,34.74 312.65,34.74 312.65,38.21 316.12,38.21 316.12,41.69 319.6,41.69 319.6,45.16 323.07,45.16 323.07,48.63 326.55,48.63 326.55,55.58 330.02,55.58 330.02,59.06 333.49,59.06 333.49,62.53 336.97,62.53 336.97,66 340.44,66 340.44,72.95 343.91,72.95 343.91,76.43 347.39,76.43 347.39,79.9 350.86,79.9 350.86,83.37 354.34,83.37 354.34,90.32 357.81,90.32 357.81,93.79 361.28,93.79 361.28,97.27 364.76,97.27 364.76,100.74 368.23,100.74 368.23,107.69 371.71,107.69 371.71,111.16 375.18,111.16 375.18,114.64 378.65,114.64 378.65,118.11 371.71,118.11 371.71,121.59 361.28,121.59 361.28,125.06 354.34,125.06 354.34,128.53 347.39,128.53 347.39,132.01 336.97,132.01 336.97,135.48 330.02,135.48 330.02,138.96 323.07,138.96 323.07,142.43 312.65,142.43 312.65,145.9 305.7,145.9 305.7,149.38 295.28,149.38 295.28,152.85 288.33,152.85 288.33,156.32 281.38,156.32 281.38,159.8 270.96,159.8 270.96,163.27 264.02,163.27 264.02,166.75 257.07,166.75 257.07,170.22 246.65,170.22 246.65,173.69 239.7,173.69 239.7,177.17 229.28,177.17 229.28,180.64 222.33,180.64 222.33,184.12 215.38,184.12 215.38,187.59 204.96,187.59 204.96,191.06 198.01,191.06 198.01,194.54 191.06,194.54 191.06,198.01 180.64,198.01 180.64,201.49 173.69,201.49 173.69,204.96 166.75,204.96 166.75,208.43 156.32,208.43 156.32,211.91 149.38,211.91 149.38,215.38 152.85,215.38 152.85,218.85 159.8,218.85 159.8,222.33 166.75,222.33 166.75,225.8 173.69,225.8 173.69,222.33 184.12,222.33 184.12,218.85 191.06,218.85 191.06,215.38 201.49,215.38 201.49,211.91 208.43,211.91 208.43,208.43 215.38,208.43 215.38,204.96 225.8,204.96 225.8,201.49 232.75,201.49 232.75,198.01 243.17,198.01 243.17,194.54 250.12,194.54 250.12,191.06 257.07,191.06 257.07,187.59 267.49,187.59 267.49,184.12 274.44,184.12 274.44,180.64 281.38,180.64 281.38,177.17 291.81,177.17 291.81,173.69 298.75,173.69 298.75,170.22 309.18,170.22 309.18,166.75 316.12,166.75 316.12,163.27 323.07,163.27 323.07,159.8 333.49,159.8 333.49,156.32 340.44,156.32 340.44,152.85 347.39,152.85 347.39,149.38 357.81,149.38 357.81,145.9 364.76,145.9 364.76,142.43 375.18,142.43 375.18,138.96 382.13,138.96 382.13,135.48 389.07,135.48 389.07,132.01 396.02,132.01 396.02,128.53 399.5,128.53 399.5,125.06 402.97,125.06 402.97,121.59 406.44,121.59 406.44,118.11 409.92,118.11 409.92,114.64 413.39,114.64 413.39,111.16 416.87,111.16 416.87,107.69 420.34,107.69 420.34,100.74 423.81,100.74 423.81,97.27 427.29,97.27 427.29,93.79 430.76,93.79 430.76,86.85 427.29,86.85 427.29,69.48 420.34,69.48 420.34,72.95 416.87,72.95 416.87,79.9 413.39,79.9 413.39,83.37 409.92,83.37 409.92,86.85 406.44,86.85 406.44,90.32 402.97,90.32 402.97,97.27 399.5,97.27 399.5,100.74 396.02,100.74 396.02,104.22 392.55,104.22 392.55,100.74 389.07,100.74 389.07,97.27 385.6,97.27 385.6,93.79 382.13,93.79 382.13,86.85 378.65,86.85 378.65,83.37 375.18,83.37 375.18,79.9 371.71,79.9 371.71,76.43 368.23,76.43 368.23,69.48 364.76,69.48 364.76,66 361.28,66 361.28,62.53 357.81,62.53 357.81,59.06 354.34,59.06 354.34,52.11 350.86,52.11 350.86,48.63 347.39,48.63 347.39,45.16 343.91,45.16 343.91,41.69 340.44,41.69 340.44,34.74 336.97,34.74 336.97,31.26 333.49,31.26 333.49,27.79 330.02,27.79 330.02,24.32 326.55,24.32 326.55,17.37 323.07,17.37 323.07,13.9 319.6,13.9 319.6,10.42 316.12,10.42 316.12,6.95 312.65,6.95 312.65,3.47 309.18,3.47 309.18,0 291.81,0 291.81,3.47 284.86,3.47 284.86,6.95 274.44,6.95 274.44,10.42 267.49,10.42 267.49,13.9 260.54,13.9 260.54,17.37 250.12,17.37 250.12,20.84 243.17,20.84 243.17,24.32 232.75,24.32 232.75,27.79 225.8,27.79 225.8,31.26 218.85,31.26 218.85,34.74 208.43,34.74 208.43,38.21 201.49,38.21 201.49,41.69 194.54,41.69 194.54,45.16 184.12,45.16 184.12,48.63 177.17,48.63 177.17,52.11 166.75,52.11 166.75,55.58 159.8,55.58 159.8,59.06 152.85,59.06 152.85,62.53 142.43,62.53 142.43,66 135.48,66 135.48,69.48 "/>
  <polygon class="fil1" points="514.13,305.7 514.13,309.18 503.71,309.18 503.71,312.65 496.77,312.65 496.77,316.12 486.34,316.12 486.34,319.6 479.4,319.6 479.4,323.07 472.45,323.07 472.45,326.55 462.03,326.55 462.03,330.02 455.08,330.02 455.08,333.49 444.66,333.49 444.66,336.97 437.71,336.97 437.71,340.44 430.76,340.44 430.76,343.91 420.34,343.91 420.34,347.39 413.39,347.39 413.39,350.86 402.97,350.86 402.97,354.34 396.02,354.34 396.02,357.81 389.07,357.81 389.07,361.28 385.6,361.28 385.6,364.76 382.13,364.76 382.13,368.23 378.65,368.23 378.65,371.71 375.18,371.71 375.18,378.65 371.71,378.65 371.71,382.13 368.23,382.13 368.23,385.6 364.76,385.6 364.76,389.07 361.28,389.07 361.28,396.02 357.81,396.02 357.81,399.5 354.34,399.5 354.34,402.97 350.86,402.97 350.86,409.92 347.39,409.92 347.39,413.39 343.91,413.39 343.91,416.87 340.44,416.87 340.44,420.34 336.97,420.34 336.97,427.29 333.49,427.29 333.49,430.76 330.02,430.76 330.02,434.24 326.55,434.24 326.55,437.71 323.07,437.71 323.07,444.66 319.6,444.66 319.6,448.13 316.12,448.13 316.12,451.6 312.65,451.6 312.65,455.08 309.18,455.08 309.18,462.03 305.7,462.03 305.7,465.5 302.23,465.5 302.23,468.97 298.75,468.97 298.75,465.5 291.81,465.5 291.81,462.03 281.38,462.03 281.38,458.55 274.44,458.55 274.44,479.4 281.38,479.4 281.38,482.87 288.33,482.87 288.33,486.34 295.28,486.34 295.28,489.82 309.18,489.82 309.18,486.34 312.65,486.34 312.65,482.87 316.12,482.87 316.12,479.4 319.6,479.4 319.6,475.92 323.07,475.92 323.07,472.45 326.55,472.45 326.55,465.5 330.02,465.5 330.02,462.03 333.49,462.03 333.49,458.55 336.97,458.55 336.97,455.08 340.44,455.08 340.44,448.13 343.91,448.13 343.91,444.66 347.39,444.66 347.39,441.18 350.86,441.18 350.86,437.71 354.34,437.71 354.34,434.24 357.81,434.24 357.81,427.29 361.28,427.29 361.28,423.81 364.76,423.81 364.76,420.34 368.23,420.34 368.23,416.87 371.71,416.87 371.71,409.92 375.18,409.92 375.18,406.44 378.65,406.44 378.65,402.97 382.13,402.97 382.13,698.25 375.18,698.25 375.18,694.78 368.23,694.78 368.23,691.3 361.28,691.3 361.28,687.83 350.86,687.83 350.86,684.36 343.91,684.36 343.91,680.88 336.97,680.88 336.97,677.41 326.55,677.41 326.55,673.93 319.6,673.93 319.6,670.46 312.65,670.46 312.65,666.99 302.23,666.99 302.23,663.51 295.28,663.51 295.28,660.04 288.33,660.04 288.33,656.56 274.44,656.56 274.44,673.93 277.91,673.93 277.91,680.88 284.86,680.88 284.86,684.36 295.28,684.36 295.28,687.83 302.23,687.83 302.23,691.3 309.18,691.3 309.18,694.78 319.6,694.78 319.6,698.25 326.55,698.25 326.55,701.72 333.49,701.72 333.49,705.2 340.44,705.2 340.44,708.67 350.86,708.67 350.86,712.15 357.81,712.15 357.81,715.62 364.76,715.62 364.76,719.09 375.18,719.09 375.18,722.57 382.13,722.57 382.13,726.04 406.44,726.04 406.44,722.57 413.39,722.57 413.39,719.09 420.34,719.09 420.34,715.62 430.76,715.62 430.76,712.15 437.71,712.15 437.71,708.67 444.66,708.67 444.66,705.2 455.08,705.2 455.08,701.72 462.03,701.72 462.03,698.25 468.97,698.25 468.97,694.78 479.4,694.78 479.4,691.3 486.34,691.3 486.34,687.83 493.29,687.83 493.29,684.36 503.71,684.36 503.71,680.88 496.77,680.88 496.77,666.99 500.24,666.99 500.24,660.04 496.77,660.04 496.77,663.51 489.82,663.51 489.82,666.99 479.4,666.99 479.4,670.46 472.45,670.46 472.45,673.93 465.5,673.93 465.5,677.41 455.08,677.41 455.08,680.88 448.13,680.88 448.13,684.36 441.18,684.36 441.18,687.83 430.76,687.83 430.76,691.3 423.81,691.3 423.81,694.78 416.87,694.78 416.87,698.25 406.44,698.25 406.44,402.97 409.92,402.97 409.92,406.44 413.39,406.44 413.39,409.92 416.87,409.92 416.87,413.39 420.34,413.39 420.34,420.34 423.81,420.34 423.81,423.81 427.29,423.81 427.29,427.29 430.76,427.29 430.76,430.76 434.24,430.76 434.24,434.24 437.71,434.24 437.71,441.18 441.18,441.18 441.18,444.66 444.66,444.66 444.66,448.13 448.13,448.13 448.13,451.6 451.6,451.6 451.6,458.55 455.08,458.55 455.08,462.03 458.55,462.03 458.55,465.5 462.03,465.5 462.03,468.97 465.5,468.97 465.5,472.45 468.97,472.45 468.97,479.4 472.45,479.4 472.45,482.87 475.92,482.87 475.92,486.34 482.87,486.34 482.87,489.82 493.29,489.82 493.29,486.34 503.71,486.34 503.71,482.87 510.66,482.87 510.66,479.4 517.61,479.4 517.61,475.92 528.03,475.92 528.03,472.45 534.98,472.45 534.98,465.5 538.45,465.5 538.45,462.03 541.93,462.03 541.93,451.6 534.98,451.6 534.98,448.13 531.5,448.13 531.5,451.6 521.08,451.6 521.08,455.08 514.13,455.08 514.13,458.55 507.19,458.55 507.19,462.03 496.77,462.03 496.77,465.5 486.34,465.5 486.34,462.03 482.87,462.03 482.87,458.55 479.4,458.55 479.4,455.08 475.92,455.08 475.92,451.6 472.45,451.6 472.45,444.66 468.97,444.66 468.97,441.18 465.5,441.18 465.5,437.71 462.03,437.71 462.03,434.24 458.55,434.24 458.55,427.29 455.08,427.29 455.08,423.81 451.6,423.81 451.6,420.34 448.13,420.34 448.13,416.87 444.66,416.87 444.66,409.92 441.18,409.92 441.18,406.44 437.71,406.44 437.71,402.97 434.24,402.97 434.24,399.5 430.76,399.5 430.76,392.55 427.29,392.55 427.29,389.07 423.81,389.07 423.81,385.6 420.34,385.6 420.34,382.13 416.87,382.13 416.87,375.18 413.39,375.18 413.39,371.71 416.87,371.71 416.87,368.23 423.81,368.23 423.81,364.76 434.24,364.76 434.24,361.28 441.18,361.28 441.18,357.81 448.13,357.81 448.13,354.34 458.55,354.34 458.55,350.86 465.5,350.86 465.5,347.39 472.45,347.39 472.45,343.91 482.87,343.91 482.87,340.44 489.82,340.44 489.82,336.97 500.24,336.97 500.24,333.49 507.19,333.49 507.19,330.02 514.13,330.02 514.13,326.55 524.56,326.55 524.56,323.07 531.5,323.07 531.5,319.6 541.93,319.6 541.93,316.12 538.45,316.12 538.45,312.65 541.93,312.65 541.93,302.23 534.98,302.23 534.98,298.75 528.03,298.75 528.03,302.23 521.08,302.23 521.08,305.7 "/>
  <polygon class="fil2" points="646.14,86.85 649.62,86.85 649.62,90.32 656.56,90.32 656.56,93.79 666.99,93.79 666.99,97.27 673.93,97.27 673.93,100.74 684.36,100.74 684.36,104.22 691.3,104.22 691.3,107.69 698.25,107.69 698.25,111.16 708.67,111.16 708.67,114.64 715.62,114.64 715.62,118.11 726.04,118.11 726.04,121.59 732.99,121.59 732.99,125.06 739.94,125.06 739.94,128.53 750.36,128.53 750.36,132.01 757.31,132.01 757.31,135.48 760.78,135.48 760.78,138.96 757.31,138.96 757.31,142.43 753.83,142.43 753.83,149.38 750.36,149.38 750.36,152.85 746.88,152.85 746.88,156.32 743.41,156.32 743.41,159.8 739.94,159.8 739.94,166.75 736.46,166.75 736.46,170.22 732.99,170.22 732.99,173.69 729.52,173.69 729.52,180.64 726.04,180.64 726.04,184.12 722.57,184.12 722.57,187.59 719.09,187.59 719.09,191.06 715.62,191.06 715.62,198.01 712.15,198.01 712.15,201.49 708.67,201.49 708.67,204.96 705.2,204.96 705.2,208.43 701.72,208.43 701.72,215.38 698.25,215.38 698.25,218.85 694.78,218.85 694.78,222.33 691.3,222.33 691.3,225.8 687.83,225.8 687.83,229.28 677.41,229.28 677.41,225.8 666.99,225.8 666.99,222.33 660.04,222.33 660.04,218.85 649.62,218.85 649.62,215.38 642.67,215.38 642.67,211.91 635.72,211.91 635.72,208.43 625.3,208.43 625.3,204.96 618.35,204.96 618.35,201.49 607.93,201.49 607.93,198.01 600.98,198.01 600.98,194.54 594.03,194.54 594.03,191.06 583.61,191.06 583.61,194.54 587.09,194.54 587.09,204.96 576.66,204.96 576.66,208.43 583.61,208.43 583.61,211.91 590.56,211.91 590.56,215.38 600.98,215.38 600.98,218.85 607.93,218.85 607.93,222.33 614.88,222.33 614.88,225.8 625.3,225.8 625.3,229.28 632.25,229.28 632.25,232.75 639.19,232.75 639.19,236.22 649.62,236.22 649.62,239.7 656.56,239.7 656.56,243.17 663.51,243.17 663.51,246.65 670.46,246.65 670.46,250.12 680.88,250.12 680.88,253.59 684.36,253.59 684.36,257.07 687.83,257.07 687.83,260.54 691.3,260.54 691.3,264.02 694.78,264.02 694.78,270.96 698.25,270.96 698.25,274.44 701.72,274.44 701.72,277.91 705.2,277.91 705.2,284.86 708.67,284.86 708.67,288.33 712.15,288.33 712.15,291.81 715.62,291.81 715.62,295.28 719.09,295.28 719.09,302.23 722.57,302.23 722.57,305.7 726.04,305.7 726.04,309.18 729.52,309.18 729.52,312.65 732.99,312.65 732.99,319.6 736.46,319.6 736.46,323.07 739.94,323.07 739.94,326.55 743.41,326.55 743.41,333.49 746.88,333.49 746.88,336.97 750.36,336.97 750.36,340.44 753.83,340.44 753.83,343.91 757.31,343.91 757.31,350.86 760.78,350.86 760.78,354.34 750.36,354.34 750.36,357.81 743.41,357.81 743.41,361.28 736.46,361.28 736.46,364.76 726.04,364.76 726.04,368.23 719.09,368.23 719.09,371.71 712.15,371.71 712.15,375.18 701.72,375.18 701.72,378.65 694.78,378.65 694.78,382.13 684.36,382.13 684.36,385.6 677.41,385.6 677.41,389.07 670.46,389.07 670.46,392.55 660.04,392.55 660.04,396.02 653.09,396.02 653.09,399.5 646.14,399.5 646.14,402.97 639.19,402.97 639.19,406.44 646.14,406.44 646.14,420.34 660.04,420.34 660.04,416.87 666.99,416.87 666.99,413.39 677.41,413.39 677.41,583.61 673.93,583.61 673.93,587.09 666.99,587.09 666.99,590.56 656.56,590.56 656.56,594.03 649.62,594.03 649.62,597.51 642.67,597.51 642.67,600.98 632.25,600.98 632.25,604.46 625.3,604.46 625.3,607.93 618.35,607.93 618.35,611.4 611.4,611.4 611.4,614.88 600.98,614.88 600.98,618.35 594.03,618.35 594.03,621.83 587.09,621.83 587.09,625.3 580.14,625.3 580.14,628.77 587.09,628.77 587.09,642.67 583.61,642.67 583.61,646.14 590.56,646.14 590.56,642.67 597.51,642.67 597.51,639.19 607.93,639.19 607.93,635.72 614.88,635.72 614.88,632.25 621.83,632.25 621.83,628.77 632.25,628.77 632.25,625.3 639.19,625.3 639.19,621.83 646.14,621.83 646.14,618.35 656.56,618.35 656.56,614.88 663.51,614.88 663.51,611.4 670.46,611.4 670.46,607.93 680.88,607.93 680.88,604.46 687.83,604.46 687.83,600.98 691.3,600.98 691.3,597.51 694.78,597.51 694.78,594.03 698.25,594.03 698.25,402.97 701.72,402.97 701.72,399.5 708.67,399.5 708.67,396.02 715.62,396.02 715.62,392.55 726.04,392.55 726.04,389.07 732.99,389.07 732.99,385.6 743.41,385.6 743.41,382.13 750.36,382.13 750.36,378.65 757.31,378.65 757.31,375.18 767.73,375.18 767.73,371.71 774.68,371.71 774.68,368.23 781.62,368.23 781.62,361.28 785.1,361.28 785.1,347.39 781.62,347.39 781.62,343.91 778.15,343.91 778.15,336.97 774.68,336.97 774.68,333.49 771.2,333.49 771.2,330.02 767.73,330.02 767.73,326.55 764.25,326.55 764.25,319.6 760.78,319.6 760.78,316.12 757.31,316.12 757.31,312.65 753.83,312.65 753.83,309.18 750.36,309.18 750.36,302.23 746.88,302.23 746.88,298.75 743.41,298.75 743.41,295.28 739.94,295.28 739.94,288.33 736.46,288.33 736.46,284.86 732.99,284.86 732.99,281.38 729.52,281.38 729.52,277.91 726.04,277.91 726.04,270.96 722.57,270.96 722.57,267.49 719.09,267.49 719.09,264.02 715.62,264.02 715.62,260.54 712.15,260.54 712.15,253.59 708.67,253.59 708.67,250.12 705.2,250.12 705.2,246.65 701.72,246.65 701.72,243.17 705.2,243.17 705.2,239.7 708.67,239.7 708.67,236.22 712.15,236.22 712.15,229.28 715.62,229.28 715.62,225.8 719.09,225.8 719.09,222.33 722.57,222.33 722.57,218.85 726.04,218.85 726.04,211.91 729.52,211.91 729.52,208.43 732.99,208.43 732.99,204.96 736.46,204.96 736.46,198.01 739.94,198.01 739.94,194.54 743.41,194.54 743.41,191.06 746.88,191.06 746.88,187.59 750.36,187.59 750.36,180.64 753.83,180.64 753.83,177.17 757.31,177.17 757.31,173.69 760.78,173.69 760.78,166.75 764.25,166.75 764.25,163.27 767.73,163.27 767.73,159.8 771.2,159.8 771.2,156.32 774.68,156.32 774.68,149.38 778.15,149.38 778.15,145.9 781.62,145.9 781.62,142.43 785.1,142.43 785.1,128.53 781.62,128.53 781.62,121.59 774.68,121.59 774.68,118.11 767.73,118.11 767.73,114.64 760.78,114.64 760.78,111.16 750.36,111.16 750.36,107.69 743.41,107.69 743.41,104.22 732.99,104.22 732.99,100.74 726.04,100.74 726.04,97.27 719.09,97.27 719.09,93.79 708.67,93.79 708.67,90.32 701.72,90.32 701.72,86.85 694.78,86.85 694.78,83.37 684.36,83.37 684.36,79.9 677.41,79.9 677.41,76.43 666.99,76.43 666.99,72.95 660.04,72.95 660.04,69.48 653.09,69.48 653.09,66 642.67,66 642.67,69.48 646.14,69.48 "/>
  <polygon class="fil3" points="468.97,10.42 468.97,13.9 465.5,13.9 465.5,17.37 462.03,17.37 462.03,20.84 458.55,20.84 458.55,27.79 455.08,27.79 455.08,31.26 451.6,31.26 451.6,34.74 448.13,34.74 448.13,38.21 444.66,38.21 444.66,41.69 441.18,41.69 441.18,48.63 437.71,48.63 437.71,52.11 434.24,52.11 434.24,55.58 430.76,55.58 430.76,59.06 427.29,59.06 427.29,66 423.81,66 423.81,69.48 427.29,69.48 427.29,86.85 430.76,86.85 430.76,90.32 434.24,90.32 434.24,86.85 437.71,86.85 437.71,79.9 441.18,79.9 441.18,76.43 444.66,76.43 444.66,72.95 448.13,72.95 448.13,69.48 451.6,69.48 451.6,62.53 455.08,62.53 455.08,59.06 458.55,59.06 458.55,55.58 462.03,55.58 462.03,52.11 465.5,52.11 465.5,48.63 468.97,48.63 468.97,41.69 472.45,41.69 472.45,38.21 475.92,38.21 475.92,34.74 479.4,34.74 479.4,31.26 482.87,31.26 482.87,24.32 486.34,24.32 486.34,20.84 493.29,20.84 493.29,24.32 500.24,24.32 500.24,27.79 510.66,27.79 510.66,31.26 517.61,31.26 517.61,34.74 524.56,34.74 524.56,38.21 534.98,38.21 534.98,41.69 541.93,41.69 541.93,45.16 552.35,45.16 552.35,48.63 559.3,48.63 559.3,52.11 566.24,52.11 566.24,55.58 576.66,55.58 576.66,59.06 583.61,59.06 583.61,62.53 594.03,62.53 594.03,66 600.98,66 600.98,69.48 607.93,69.48 607.93,72.95 618.35,72.95 618.35,76.43 625.3,76.43 625.3,79.9 632.25,79.9 632.25,83.37 642.67,83.37 642.67,86.85 646.14,86.85 646.14,69.48 642.67,69.48 642.67,62.53 635.72,62.53 635.72,59.06 625.3,59.06 625.3,55.58 618.35,55.58 618.35,52.11 611.4,52.11 611.4,48.63 600.98,48.63 600.98,45.16 594.03,45.16 594.03,41.69 583.61,41.69 583.61,38.21 576.66,38.21 576.66,34.74 569.72,34.74 569.72,31.26 562.77,31.26 562.77,27.79 552.35,27.79 552.35,24.32 545.4,24.32 545.4,20.84 538.45,20.84 538.45,17.37 528.03,17.37 528.03,13.9 521.08,13.9 521.08,10.42 510.66,10.42 510.66,6.95 503.71,6.95 503.71,3.47 496.77,3.47 496.77,0 479.4,0 479.4,3.47 472.45,3.47 472.45,10.42 "/>
  <polygon class="fil3" points="444.66,152.85 451.6,152.85 451.6,156.32 458.55,156.32 458.55,159.8 468.97,159.8 468.97,163.27 475.92,163.27 475.92,166.75 482.87,166.75 482.87,170.22 493.29,170.22 493.29,173.69 500.24,173.69 500.24,177.17 507.19,177.17 507.19,180.64 517.61,180.64 517.61,184.12 524.56,184.12 524.56,187.59 531.5,187.59 531.5,191.06 541.93,191.06 541.93,194.54 548.87,194.54 548.87,198.01 555.82,198.01 555.82,201.49 566.24,201.49 566.24,204.96 573.19,204.96 573.19,208.43 576.66,208.43 576.66,204.96 587.09,204.96 587.09,194.54 583.61,194.54 583.61,187.59 576.66,187.59 576.66,184.12 569.72,184.12 569.72,180.64 559.3,180.64 559.3,177.17 552.35,177.17 552.35,173.69 545.4,173.69 545.4,170.22 534.98,170.22 534.98,166.75 528.03,166.75 528.03,163.27 517.61,163.27 517.61,159.8 510.66,159.8 510.66,156.32 503.71,156.32 503.71,152.85 493.29,152.85 493.29,149.38 486.34,149.38 486.34,145.9 475.92,145.9 475.92,142.43 468.97,142.43 468.97,138.96 458.55,138.96 458.55,135.48 451.6,135.48 451.6,132.01 441.18,132.01 441.18,135.48 437.71,135.48 437.71,138.96 434.24,138.96 434.24,142.43 430.76,142.43 430.76,145.9 434.24,145.9 434.24,149.38 444.66,149.38 "/>
  <polygon class="fil3" points="621.83,409.92 621.83,413.39 611.4,413.39 611.4,416.87 604.46,416.87 604.46,420.34 597.51,420.34 597.51,423.81 587.09,423.81 587.09,427.29 580.14,427.29 580.14,430.76 573.19,430.76 573.19,434.24 562.77,434.24 562.77,437.71 555.82,437.71 555.82,441.18 548.87,441.18 548.87,444.66 538.45,444.66 538.45,448.13 534.98,448.13 534.98,451.6 541.93,451.6 541.93,462.03 538.45,462.03 538.45,465.5 534.98,465.5 534.98,468.97 541.93,468.97 541.93,465.5 552.35,465.5 552.35,462.03 559.3,462.03 559.3,458.55 569.72,458.55 569.72,455.08 576.66,455.08 576.66,451.6 583.61,451.6 583.61,448.13 594.03,448.13 594.03,444.66 600.98,444.66 600.98,441.18 607.93,441.18 607.93,437.71 618.35,437.71 618.35,434.24 625.3,434.24 625.3,430.76 635.72,430.76 635.72,427.29 642.67,427.29 642.67,423.81 649.62,423.81 649.62,420.34 646.14,420.34 646.14,406.44 639.19,406.44 639.19,402.97 635.72,402.97 635.72,406.44 628.77,406.44 628.77,409.92 "/>
  <polygon class="fil3" points="597.51,270.96 597.51,274.44 587.09,274.44 587.09,277.91 580.14,277.91 580.14,281.38 569.72,281.38 569.72,284.86 562.77,284.86 562.77,288.33 555.82,288.33 555.82,291.81 545.4,291.81 545.4,295.28 538.45,295.28 538.45,298.75 534.98,298.75 534.98,302.23 541.93,302.23 541.93,312.65 538.45,312.65 538.45,316.12 548.87,316.12 548.87,312.65 555.82,312.65 555.82,309.18 566.24,309.18 566.24,305.7 573.19,305.7 573.19,302.23 580.14,302.23 580.14,298.75 590.56,298.75 590.56,295.28 597.51,295.28 597.51,291.81 604.46,291.81 604.46,288.33 614.88,288.33 614.88,284.86 621.83,284.86 621.83,281.38 632.25,281.38 632.25,277.91 639.19,277.91 639.19,274.44 646.14,274.44 646.14,270.96 642.67,270.96 642.67,267.49 635.72,267.49 635.72,264.02 625.3,264.02 625.3,260.54 621.83,260.54 621.83,264.02 611.4,264.02 611.4,267.49 604.46,267.49 604.46,270.96 "/>
  <polygon class="fil3" points="514.13,653.09 514.13,656.56 503.71,656.56 503.71,660.04 500.24,660.04 500.24,666.99 496.77,666.99 496.77,680.88 510.66,680.88 510.66,677.41 517.61,677.41 517.61,673.93 528.03,673.93 528.03,670.46 534.98,670.46 534.98,666.99 541.93,666.99 541.93,663.51 552.35,663.51 552.35,660.04 559.3,660.04 559.3,656.56 566.24,656.56 566.24,653.09 576.66,653.09 576.66,649.62 583.61,649.62 583.61,642.67 587.09,642.67 587.09,628.77 580.14,628.77 580.14,625.3 576.66,625.3 576.66,628.77 569.72,628.77 569.72,632.25 559.3,632.25 559.3,635.72 552.35,635.72 552.35,639.19 545.4,639.19 545.4,642.67 534.98,642.67 534.98,646.14 528.03,646.14 528.03,649.62 521.08,649.62 521.08,653.09 "/>
  <polygon class="fil4" points="479.4,0 475.92,0 475.92,3.47 479.4,3.47 "/>
  <polygon class="fil4" points="472.45,6.95 468.97,6.95 468.97,10.42 472.45,10.42 "/>
  <polygon class="fil4" points="458.55,24.32 455.08,24.32 455.08,27.79 458.55,27.79 "/>
  <polygon class="fil4" points="486.34,24.32 482.87,24.32 482.87,27.79 486.34,27.79 "/>
  <polygon class="fil4" points="548.87,441.18 545.4,441.18 545.4,444.66 548.87,444.66 "/>
  <polygon class="fil4" points="587.09,41.69 587.09,38.21 583.61,38.21 583.61,41.69 "/>
  <polygon class="fil4" points="552.35,48.63 552.35,45.16 548.87,45.16 548.87,48.63 "/>
  <polygon class="fil5" points="284.86,462.03 284.86,458.55 281.38,458.55 281.38,462.03 "/>
  <polygon class="fil4" points="468.97,475.92 468.97,472.45 465.5,472.45 465.5,475.92 "/>
  <polygon class="fil4" points="628.77,59.06 628.77,55.58 625.3,55.58 625.3,59.06 "/>
  <polygon class="fil4" points="455.08,62.53 451.6,62.53 451.6,66 455.08,66 "/>
  <polygon class="fil4" points="594.03,66 594.03,62.53 590.56,62.53 590.56,66 "/>
  <polygon class="fil4" points="646.14,66 646.14,62.53 642.67,62.53 642.67,66 "/>
  <polygon class="fil5" points="128.53,69.48 125.06,69.48 125.06,72.95 128.53,72.95 "/>
  <polygon class="fil5" points="128.53,590.56 128.53,587.09 125.06,587.09 125.06,590.56 "/>
  <polygon class="fil5" points="152.85,600.98 152.85,597.51 149.38,597.51 149.38,600.98 "/>
  <polygon class="fil4" points="416.87,76.43 413.39,76.43 413.39,79.9 416.87,79.9 "/>
  <polygon class="fil5" points="104.22,79.9 100.74,79.9 100.74,83.37 104.22,83.37 "/>
  <polygon class="fil5" points="159.8,79.9 156.32,79.9 156.32,83.37 159.8,83.37 "/>
  <polygon class="fil4" points="441.18,79.9 437.71,79.9 437.71,83.37 441.18,83.37 "/>
  <polygon class="fil4" points="687.83,83.37 687.83,79.9 684.36,79.9 684.36,83.37 "/>
  <polygon class="fil4" points="642.67,86.85 642.67,83.37 639.19,83.37 639.19,86.85 "/>
  <polygon class="fil4" points="642.67,597.51 639.19,597.51 639.19,600.98 642.67,600.98 "/>
  <polygon class="fil4" points="694.78,597.51 691.3,597.51 691.3,600.98 694.78,600.98 "/>
  <polygon class="fil5" points="100.74,604.46 100.74,600.98 97.27,600.98 97.27,604.46 "/>
  <polygon class="fil5" points="118.11,97.27 114.64,97.27 114.64,100.74 118.11,100.74 "/>
  <polygon class="fil4" points="423.81,100.74 420.34,100.74 420.34,104.22 423.81,104.22 "/>
  <polygon class="fil4" points="673.93,607.93 670.46,607.93 670.46,611.4 673.93,611.4 "/>
  <polygon class="fil4" points="736.46,104.22 736.46,100.74 732.99,100.74 732.99,104.22 "/>
  <polygon class="fil5" points="38.21,107.69 34.74,107.69 34.74,111.16 38.21,111.16 "/>
  <polygon class="fil4" points="611.4,611.4 607.93,611.4 607.93,614.88 611.4,614.88 "/>
  <polygon class="fil5" points="20.84,114.64 17.37,114.64 17.37,118.11 20.84,118.11 "/>
  <polygon class="fil5" points="69.48,118.11 66,118.11 66,121.59 69.48,121.59 "/>
  <polygon class="fil4" points="726.04,121.59 726.04,118.11 722.57,118.11 722.57,121.59 "/>
  <polygon class="fil4" points="649.62,618.35 646.14,618.35 646.14,621.83 649.62,621.83 "/>
  <polygon class="fil4" points="625.3,628.77 621.83,628.77 621.83,632.25 625.3,632.25 "/>
  <polygon class="fil4" points="600.98,639.19 597.51,639.19 597.51,642.67 600.98,642.67 "/>
  <polygon class="fil4" points="750.36,132.01 750.36,128.53 746.88,128.53 746.88,132.01 "/>
  <polygon class="fil5" points="305.7,666.99 305.7,663.51 302.23,663.51 302.23,666.99 "/>
  <polygon class="fil5" points="6.95,145.9 6.95,142.43 3.47,142.43 3.47,145.9 "/>
  <polygon class="fil4" points="479.4,145.9 479.4,142.43 475.92,142.43 475.92,145.9 "/>
  <polygon class="fil5" points="38.21,149.38 38.21,145.9 34.74,145.9 34.74,149.38 "/>
  <polygon class="fil4" points="444.66,152.85 444.66,149.38 441.18,149.38 441.18,152.85 "/>
  <polygon class="fil4" points="468.97,163.27 468.97,159.8 465.5,159.8 465.5,163.27 "/>
  <polygon class="fil5" points="52.11,166.75 52.11,163.27 48.63,163.27 48.63,166.75 "/>
  <polygon class="fil4" points="489.82,663.51 486.34,663.51 486.34,666.99 489.82,666.99 "/>
  <polygon class="fil4" points="493.29,173.69 493.29,170.22 489.82,170.22 489.82,173.69 "/>
  <polygon class="fil5" points="319.6,698.25 319.6,694.78 316.12,694.78 316.12,698.25 "/>
  <polygon class="fil4" points="472.45,694.78 468.97,694.78 468.97,698.25 472.45,698.25 "/>
  <polygon class="fil4" points="517.61,184.12 517.61,180.64 514.13,180.64 514.13,184.12 "/>
  <polygon class="fil4" points="587.09,191.06 587.09,187.59 583.61,187.59 583.61,191.06 "/>
  <polygon class="fil4" points="448.13,705.2 444.66,705.2 444.66,708.67 448.13,708.67 "/>
  <polygon class="fil4" points="618.35,607.93 614.88,607.93 614.88,611.4 618.35,611.4 "/>
  <polygon class="fil4" points="628.77,208.43 628.77,204.96 625.3,204.96 625.3,208.43 "/>
  <polygon class="fil5" points="59.06,211.91 59.06,208.43 55.58,208.43 55.58,211.91 "/>
  <polygon class="fil4" points="583.61,211.91 583.61,208.43 580.14,208.43 580.14,211.91 "/>
  <polygon class="fil5" points="90.32,215.38 90.32,211.91 86.85,211.91 86.85,215.38 "/>
  <polygon class="fil4" points="607.93,288.33 604.46,288.33 604.46,291.81 607.93,291.81 "/>
  <polygon class="fil4" points="670.46,225.8 670.46,222.33 666.99,222.33 666.99,225.8 "/>
  <polygon class="fil4" points="625.3,229.28 625.3,225.8 621.83,225.8 621.83,229.28 "/>
  <polygon class="fil4" points="649.62,239.7 649.62,236.22 646.14,236.22 646.14,239.7 "/>
  <polygon class="fil5" points="121.59,243.17 121.59,239.7 118.11,239.7 118.11,243.17 "/>
  <polygon class="fil5" points="128.53,246.65 128.53,243.17 125.06,243.17 125.06,246.65 "/>
  <polygon class="fil4" points="680.88,253.59 680.88,250.12 677.41,250.12 677.41,253.59 "/>
  <polygon class="fil5" points="152.85,257.07 152.85,253.59 149.38,253.59 149.38,257.07 "/>
  <polygon class="fil5" points="104.22,257.07 100.74,257.07 100.74,260.54 104.22,260.54 "/>
  <polygon class="fil4" points="694.78,267.49 694.78,264.02 691.3,264.02 691.3,267.49 "/>
  <polygon class="fil5" points="142.43,274.44 142.43,270.96 138.96,270.96 138.96,274.44 "/>
  <polygon class="fil4" points="597.51,270.96 594.03,270.96 594.03,274.44 597.51,274.44 "/>
  <polygon class="fil4" points="646.14,270.96 646.14,274.44 649.62,274.44 649.62,270.96 "/>
  <polygon class="fil5" points="90.32,274.44 86.85,274.44 86.85,277.91 90.32,277.91 "/>
  <polygon class="fil4" points="625.3,281.38 621.83,281.38 621.83,284.86 625.3,284.86 "/>
  <polygon class="fil4" points="555.82,288.33 552.35,288.33 552.35,291.81 555.82,291.81 "/>
  <polygon class="fil4" points="573.19,430.76 569.72,430.76 569.72,434.24 573.19,434.24 "/>
  <polygon class="fil4" points="583.61,298.75 580.14,298.75 580.14,302.23 583.61,302.23 "/>
  <polygon class="fil4" points="753.83,309.18 753.83,305.7 750.36,305.7 750.36,309.18 "/>
  <polygon class="fil4" points="732.99,316.12 732.99,312.65 729.52,312.65 729.52,316.12 "/>
  <polygon class="fil4" points="517.61,326.55 514.13,326.55 514.13,330.02 517.61,330.02 "/>
  <polygon class="fil4" points="475.92,343.91 472.45,343.91 472.45,347.39 475.92,347.39 "/>
  <polygon class="fil4" points="757.31,347.39 757.31,343.91 753.83,343.91 753.83,347.39 "/>
  <polygon class="fil4" points="736.46,361.28 732.99,361.28 732.99,364.76 736.46,364.76 "/>
  <polygon class="fil5" points="6.95,368.23 6.95,364.76 3.47,364.76 3.47,368.23 "/>
  <polygon class="fil5" points="86.85,378.65 86.85,375.18 83.37,375.18 83.37,378.65 "/>
  <polygon class="fil5" points="38.21,382.13 38.21,378.65 34.74,378.65 34.74,382.13 "/>
  <polygon class="fil4" points="694.78,378.65 691.3,378.65 691.3,382.13 694.78,382.13 "/>
  <polygon class="fil4" points="670.46,389.07 666.99,389.07 666.99,392.55 670.46,392.55 "/>
  <polygon class="fil4" points="719.09,392.55 715.62,392.55 715.62,396.02 719.09,396.02 "/>
  <polygon class="fil5" points="79.9,399.5 79.9,396.02 76.43,396.02 76.43,399.5 "/>
  <polygon class="fil4" points="646.14,399.5 642.67,399.5 642.67,402.97 646.14,402.97 "/>
  <polygon class="fil4" points="448.13,416.87 448.13,413.39 444.66,413.39 444.66,416.87 "/>
  <polygon class="fil4" points="597.51,420.34 594.03,420.34 594.03,423.81 597.51,423.81 "/>
  <polygon class="fil5" points="336.97,423.81 333.49,423.81 333.49,427.29 336.97,427.29 "/>
  <polygon class="fil4" points="462.03,434.24 462.03,430.76 458.55,430.76 458.55,434.24 "/>
  <polygon class="fil4" points="628.77,430.76 625.3,430.76 625.3,434.24 628.77,434.24 "/>
  <polygon class="fil4" points="611.4,437.71 607.93,437.71 607.93,441.18 611.4,441.18 "/>
  <polygon class="fil5" points="323.07,441.18 319.6,441.18 319.6,444.66 323.07,444.66 "/>
  <polygon class="fil4" points="510.66,31.26 510.66,27.79 507.19,27.79 507.19,31.26 "/>
  <polygon class="fil4" points="604.46,48.63 604.46,45.16 600.98,45.16 600.98,48.63 "/>
  <polygon class="fil4" points="576.66,59.06 576.66,55.58 573.19,55.58 573.19,59.06 "/>
  <polygon class="fil4" points="618.35,76.43 618.35,72.95 614.88,72.95 614.88,76.43 "/>
  <polygon class="fil4" points="670.46,76.43 670.46,72.95 666.99,72.95 666.99,76.43 "/>
  <polygon class="fil4" points="402.97,93.79 399.5,93.79 399.5,97.27 402.97,97.27 "/>
  <polygon class="fil4" points="666.99,97.27 666.99,93.79 663.51,93.79 663.51,97.27 "/>
  <polygon class="fil5" points="62.53,97.27 59.06,97.27 59.06,100.74 62.53,100.74 "/>
  <polygon class="fil4" points="684.36,104.22 684.36,100.74 680.88,100.74 680.88,104.22 "/>
  <polygon class="fil5" points="93.79,107.69 90.32,107.69 90.32,111.16 93.79,111.16 "/>
  <polygon class="fil4" points="778.15,121.59 778.15,118.11 774.68,118.11 774.68,121.59 "/>
  <polygon class="fil5" points="6.95,121.59 3.47,121.59 3.47,125.06 6.95,125.06 "/>
  <polygon class="fil5" points="45.16,128.53 41.69,128.53 41.69,132.01 45.16,132.01 "/>
  <polygon class="fil4" points="462.03,138.96 462.03,135.48 458.55,135.48 458.55,138.96 "/>
  <polygon class="fil4" points="764.25,166.75 760.78,166.75 760.78,170.22 764.25,170.22 "/>
  <polygon class="fil5" points="31.26,177.17 31.26,173.69 27.79,173.69 27.79,177.17 "/>
  <polygon class="fil4" points="729.52,177.17 726.04,177.17 726.04,180.64 729.52,180.64 "/>
  <polygon class="fil5" points="45.16,194.54 45.16,191.06 41.69,191.06 41.69,194.54 "/>
  <polygon class="fil5" points="76.43,198.01 76.43,194.54 72.95,194.54 72.95,198.01 "/>
  <polygon class="fil4" points="653.09,420.34 649.62,420.34 649.62,423.81 653.09,423.81 "/>
  <polygon class="fil4" points="715.62,194.54 712.15,194.54 712.15,198.01 715.62,198.01 "/>
  <polygon class="fil5" points="45.16,361.28 45.16,357.81 41.69,357.81 41.69,361.28 "/>
  <polygon class="fil4" points="712.15,371.71 708.67,371.71 708.67,375.18 712.15,375.18 "/>
  <polygon class="fil5" points="52.11,323.07 48.63,323.07 48.63,326.55 52.11,326.55 "/>
  <polygon class="fil4" points="475.92,451.6 475.92,448.13 472.45,448.13 472.45,451.6 "/>
  <polygon class="fil4" points="587.09,448.13 583.61,448.13 583.61,451.6 587.09,451.6 "/>
  <polygon class="fil4" points="760.78,375.18 757.31,375.18 757.31,378.65 760.78,378.65 "/>
  <polygon class="fil5" points="309.18,458.55 305.7,458.55 305.7,462.03 309.18,462.03 "/>
  <polygon class="fil5" points="118.11,264.02 118.11,260.54 114.64,260.54 114.64,264.02 "/>
  <polygon class="fil4" points="628.77,264.02 628.77,260.54 625.3,260.54 625.3,264.02 "/>
  <polygon class="fil4" points="472.45,323.07 468.97,323.07 468.97,326.55 472.45,326.55 "/>
  <polygon class="fil5" points="281.38,482.87 281.38,479.4 277.91,479.4 277.91,482.87 "/>
  <polygon class="fil4" points="600.98,218.85 600.98,215.38 597.51,215.38 597.51,218.85 "/>
  <polygon class="fil4" points="767.73,326.55 767.73,323.07 764.25,323.07 764.25,326.55 "/>
  <polygon class="fil4" points="666.99,587.09 663.51,587.09 663.51,590.56 666.99,590.56 "/>
  <polygon class="fil5" points="93.79,597.51 93.79,594.03 90.32,594.03 90.32,597.51 "/>
  <polygon class="fil5" points="55.58,389.07 55.58,385.6 52.11,385.6 52.11,389.07 "/>
  <polygon class="fil5" points="111.16,389.07 111.16,385.6 107.69,385.6 107.69,389.07 "/>
  <polygon class="fil5" points="59.06,277.91 55.58,277.91 55.58,281.38 59.06,281.38 "/>
  <polygon class="fil5" points="38.21,340.44 34.74,340.44 34.74,343.91 38.21,343.91 "/>
  <polygon class="fil5" points="13.9,371.71 13.9,368.23 10.42,368.23 10.42,371.71 "/>
  <polygon class="fil4" points="514.13,305.7 510.66,305.7 510.66,309.18 514.13,309.18 "/>
  <polygon class="fil5" points="125.06,614.88 125.06,611.4 121.59,611.4 121.59,614.88 "/>
  <polygon class="fil5" points="45.16,295.28 41.69,295.28 41.69,298.75 45.16,298.75 "/>
  <polygon class="fil5" points="152.85,406.44 152.85,402.97 149.38,402.97 149.38,406.44 "/>
  <polygon class="fil5" points="149.38,625.3 149.38,621.83 145.9,621.83 145.9,625.3 "/>
  <polygon class="fil4" points="587.09,621.83 583.61,621.83 583.61,625.3 587.09,625.3 "/>
  <polygon class="fil4" points="621.83,409.92 618.35,409.92 618.35,413.39 621.83,413.39 "/>
  <polygon class="fil4" points="757.31,350.86 757.31,354.34 760.78,354.34 760.78,350.86 "/>
  <polygon class="fil5" points="132.01,420.34 132.01,416.87 128.53,416.87 128.53,420.34 "/>
  <polygon class="fil4" points="465.5,673.93 462.03,673.93 462.03,677.41 465.5,677.41 "/>
  <polygon class="fil4" points="739.94,198.01 736.46,198.01 736.46,201.49 739.94,201.49 "/>
  <polygon class="fil5" points="31.26,312.65 27.79,312.65 27.79,316.12 31.26,316.12 "/>
  <polygon class="fil4" points="611.4,201.49 611.4,198.01 607.93,198.01 607.93,201.49 "/>
  <polygon class="fil4" points="621.83,260.54 618.35,260.54 618.35,264.02 621.83,264.02 "/>
  <polygon class="fil5" points="76.43,291.81 72.95,291.81 72.95,295.28 76.43,295.28 "/>
  <polygon class="fil4" points="653.09,218.85 653.09,215.38 649.62,215.38 649.62,218.85 "/>
  <polygon class="fil4" points="545.4,465.5 541.93,465.5 541.93,468.97 545.4,468.97 "/>
  <polygon class="fil4" points="496.77,684.36 493.29,684.36 493.29,687.83 496.77,687.83 "/>
  <polygon class="fil4" points="451.6,354.34 448.13,354.34 448.13,357.81 451.6,357.81 "/>
  <polygon class="fil4" points="514.13,653.09 510.66,653.09 510.66,656.56 514.13,656.56 "/>
  <polygon class="fil5" points="295.28,687.83 295.28,684.36 291.81,684.36 291.81,687.83 "/>
 </g>
</svg>
